{"asset":{"version":"2.0","generator":"Blockbench 5.1.3 glTF exporter"},"scenes":[{"nodes":[0],"name":"blockbench_export"}],"scene":0,"nodes":[{"name":"mesh","mesh":0}],"bufferViews":[{"buffer":0,"byteOffset":0,"byteLength":18336,"target":34962,"byteStride":12},{"buffer":0,"byteOffset":18336,"byteLength":18336,"target":34962,"byteStride":12},{"buffer":0,"byteOffset":36672,"byteLength":12224,"target":34962,"byteStride":8},{"buffer":0,"byteOffset":48896,"byteLength":4584,"target":34963}],"buffers":[{"byteLength":53480,"uri":"data:application/octet-stream;base64,"}],"accessors":[{"bufferView":0,"componentType":5126,"count":1528,"max":[0.375,3,1.5],"min":[-0.375,0,-1.5],"type":"VEC3"},{"bufferView":1,"componentType":5126,"count":1528,"max":[1,1,1],"min":[-1,-1,-1],"type":"VEC3"},{"bufferView":2,"componentType":5126,"count":1528,"max":[0.8671875,0.7109375],"min":[0,0],"type":"VEC2"},{"bufferView":3,"componentType":5123,"count":2292,"max":[1527],"min":[0],"type":"SCALAR"}],"materials":[{"pbrMetallicRoughness":{"metallicFactor":0,"roughnessFactor":1,"baseColorTexture":{"index":0}},"alphaMode":"MASK","alphaCutoff":0.05,"doubleSided":true}],"textures":[{"sampler":0,"source":0,"name":"brick_text"}],"samplers":[{"magFilter":9728,"minFilter":9728,"wrapS":33071,"wrapT":33071}],"images":[{"mimeType":"image/png","uri":"data:image/png;base64,"}],"meshes":[{"primitives":[{"mode":4,"attributes":{"POSITION":0,"NORMAL":1,"TEXCOORD_0":2},"indices":3,"material":0}]}]}